<svg width="24" height="24" viewBox="0 0 24 24" fill="none" xmlns="http://www.w3.org/2000/svg">
<path d="M18.0168 11.3572C18.0168 11.0155 18.2938 10.7383 18.6357 10.7383C18.9774 10.7383 19.2544 11.0155 19.2544 11.3572V19.3798C19.2544 19.7217 18.9774 19.9988 18.6357 19.9988C18.2938 19.9988 18.0168 19.7217 18.0168 19.3798V11.3572ZM18.0168 3.908C18.0168 3.5661 18.2938 3.28906 18.6357 3.28906C18.9774 3.28906 19.2544 3.5661 19.2544 3.908V7.62119C19.2544 7.96288 18.9774 8.23992 18.6357 8.23992C18.2938 8.23992 18.0168 7.96288 18.0168 7.62119V3.908ZM17.3978 8.23992V10.7154H19.8733V8.23992H17.3978ZM19.8746 7.00226C20.5575 7.00226 21.111 7.55573 21.111 8.23886V10.7167C21.111 11.3996 20.5575 11.9531 19.8746 11.9531H17.3968C16.7138 11.9531 16.1602 11.3996 16.1602 10.7167V8.23886C16.1602 7.55589 16.7136 7.00226 17.3968 7.00226H19.8746Z" fill="#125873"/>
<path d="M11.8253 11.9306C11.8253 12.2723 12.1025 12.5496 12.4442 12.5496C12.7859 12.5496 13.0632 12.2723 13.0632 11.9306V3.908C13.0632 3.5661 12.7859 3.28906 12.4442 3.28906C12.1025 3.28906 11.8253 3.5661 11.8253 3.908V11.9306ZM11.8253 19.3798C11.8253 19.7217 12.1025 19.9988 12.4442 19.9988C12.7859 19.9988 13.0632 19.7217 13.0632 19.3798V15.6666C13.0632 15.3249 12.7859 15.0479 12.4442 15.0479C12.1025 15.0479 11.8253 15.3249 11.8253 15.6666V19.3798ZM11.2066 15.0479V12.5724H13.6819V15.0479H11.2066ZM13.6832 16.2856C14.3661 16.2856 14.9198 15.7321 14.9198 15.049V12.5711C14.9198 11.8882 14.3661 11.3347 13.6832 11.3347H11.2054C10.5224 11.3347 9.96875 11.8882 9.96875 12.5711V15.049C9.96875 15.7319 10.5224 16.2856 11.2054 16.2856H13.6832Z" fill="#125873"/>
<path d="M5.63785 11.3572C5.63785 11.0155 5.91489 10.7383 6.25657 10.7383C6.59847 10.7383 6.87551 11.0155 6.87551 11.3572V19.3798C6.87551 19.7217 6.59847 19.9988 6.25657 19.9988C5.91488 19.9988 5.63785 19.7217 5.63785 19.3798V11.3572ZM5.63785 3.908C5.63785 3.5661 5.91489 3.28906 6.25657 3.28906C6.59847 3.28906 6.87551 3.5661 6.87551 3.908V7.62119C6.87551 7.96288 6.59847 8.23992 6.25657 8.23992C5.91488 8.23992 5.63785 7.96288 5.63785 7.62119V3.908ZM5.01891 8.23992V10.7154H7.49444V8.23992H5.01891ZM7.4955 7.00226C8.17847 7.00226 8.7321 7.55573 8.7321 8.23886V10.7167C8.7321 11.3996 8.17863 11.9531 7.4955 11.9531H5.01769C4.33473 11.9531 3.78125 11.3996 3.78125 10.7167V8.23886C3.78125 7.55589 4.33473 7.00226 5.01769 7.00226H7.4955Z" fill="#125873"/>
</svg>
