<svg width="24" height="24" viewBox="0 0 24 24" fill="none" xmlns="http://www.w3.org/2000/svg">
<path d="M19.2327 10.8281H18.4659C18.192 10.8281 17.9389 10.9742 17.8019 11.2114C17.665 11.4486 17.665 11.741 17.8019 11.9782C17.9389 12.2154 18.192 12.3615 18.4659 12.3615H19.2327C19.5066 12.3615 19.7597 12.2154 19.8967 11.9782C20.0337 11.741 20.0337 11.4486 19.8967 11.2114C19.7597 10.9742 19.5066 10.8281 19.2327 10.8281Z" fill="#125873"/>
<path d="M16.2213 5.09565L15.6792 5.63783C15.4869 5.83177 15.4124 6.1134 15.4835 6.37716C15.5546 6.6408 15.7606 6.84682 16.0242 6.91792C16.288 6.98903 16.5696 6.91446 16.7636 6.72218L17.3058 6.18014C17.4994 5.98632 17.575 5.70407 17.5042 5.43939C17.4332 5.17485 17.2266 4.96819 16.962 4.89722C16.6973 4.82637 16.4151 4.90197 16.2213 5.09566L16.2213 5.09565Z" fill="#125873"/>
<path d="M16.7636 16.4761C16.5696 16.2838 16.288 16.2093 16.0242 16.2804C15.7606 16.3515 15.5546 16.5575 15.4835 16.8211C15.4124 17.0849 15.487 17.3665 15.6792 17.5605L16.2213 18.1026C16.4151 18.2963 16.6973 18.3719 16.962 18.3011C17.2266 18.2301 17.4332 18.0234 17.5042 17.7589C17.575 17.4942 17.4994 17.212 17.3058 17.0182L16.7636 16.4761Z" fill="#125873"/>
<path d="M11.5684 5.51894V3.16514C11.5684 2.89123 11.4223 2.63811 11.1851 2.50116C10.9479 2.3642 10.6555 2.3642 10.4183 2.50116C10.1811 2.63811 10.035 2.89123 10.035 3.16514V5.51894C8.55317 5.70441 7.19004 6.4245 6.2017 7.54415C5.21336 8.66366 4.66797 10.1056 4.66797 11.599C4.66797 13.0923 5.21336 14.5343 6.2017 15.6538C7.18991 16.7734 8.55307 17.4935 10.035 17.679V20.0328C10.035 20.3067 10.1811 20.5598 10.4183 20.6968C10.6555 20.8337 10.9479 20.8337 11.1851 20.6968C11.4223 20.5598 11.5684 20.3067 11.5684 20.0328V17.679C13.0503 17.4935 14.4134 16.7734 15.4017 15.6538C16.3901 14.5343 16.9355 13.0923 16.9355 11.599C16.9355 10.1056 16.3901 8.66359 15.4017 7.54415C14.4135 6.4245 13.0504 5.70443 11.5684 5.51894ZM10.035 13.7689C9.4332 13.5557 8.94699 13.1023 8.69246 12.5169C8.43793 11.9314 8.43793 11.2666 8.69246 10.6811C8.94699 10.0957 9.4332 9.64237 10.035 9.42914V13.7689ZM10.035 7.89597C9.8791 7.89571 9.72404 7.91907 9.57502 7.9649C8.55599 8.31018 7.72873 9.06709 7.29466 10.0513C6.86043 11.0357 6.85928 12.157 7.29133 13.1421C7.72336 14.1274 8.54907 14.8861 9.56735 15.2334C9.71958 15.2775 9.87669 15.3033 10.0351 15.3101V16.1304C8.59452 15.8884 7.35488 14.976 6.69592 13.6724C6.0368 12.3688 6.0368 10.8295 6.69592 9.52587C7.35504 8.22228 8.59468 7.30982 10.0351 7.06784L10.035 7.89597Z" fill="#125873"/>
</svg>
