<svg width="24" height="24" viewBox="0 0 24 24" fill="none" xmlns="http://www.w3.org/2000/svg">
<path d="M15.6811 5.5795H20.2148C20.3451 5.57978 20.4627 5.50139 20.5125 5.38106C20.5625 5.26074 20.5347 5.12217 20.4426 5.03013L19.4499 4.03953C19.3237 3.91762 19.1231 3.91935 18.9991 4.04341C18.875 4.16746 18.8733 4.36806 18.9952 4.49428L19.4377 4.93682H15.681C15.5034 4.93682 15.3594 5.08084 15.3594 5.25846C15.3594 5.43622 15.5034 5.58009 15.681 5.58009L15.6811 5.5795Z" fill="#125873"/>
<path d="M20.2147 6.36328H15.6816C15.5514 6.36299 15.4338 6.44139 15.3839 6.56172C15.334 6.68204 15.3617 6.82061 15.4539 6.91265L16.4458 7.90454C16.572 8.02644 16.7726 8.02458 16.8966 7.90052C17.0207 7.77646 17.0224 7.57587 16.9007 7.44964L16.4581 7.0071H20.2156H20.2154C20.393 7.0071 20.5371 6.86308 20.5371 6.68547C20.5371 6.50785 20.393 6.36383 20.2154 6.36383L20.2147 6.36328Z" fill="#125873"/>
<path d="M18.4437 14.0709H16.9281C16.8619 13.024 16.4504 12.0285 15.758 11.2405L16.8298 10.1688H16.8296C16.9515 10.0426 16.9498 9.84196 16.8258 9.71789C16.7017 9.59381 16.5011 9.5921 16.3749 9.71401L15.2992 10.7902C14.5132 10.1007 13.5219 9.68946 12.4786 9.62009V8.10267C12.4786 7.92491 12.3346 7.78103 12.157 7.78103C11.9792 7.78103 11.8354 7.92491 11.8354 8.10267V9.62469V9.62454C11.2874 9.65872 10.75 9.78938 10.2477 10.0105C9.29803 9.37558 8.62303 8.40549 8.35767 7.29424C8.09232 6.18315 8.25616 5.01279 8.81642 4.01715C8.87242 3.91679 8.8707 3.79431 8.81197 3.69552C8.75597 3.59228 8.64469 3.53125 8.52752 3.53987C6.83491 3.58395 5.26951 4.44905 4.33191 5.85881C3.39399 7.26868 3.20086 9.04676 3.81443 10.6249C4.42785 12.2032 5.77108 13.3841 7.41488 13.7904C7.40325 13.8812 7.39435 13.9744 7.38789 14.0677H5.87101C5.6934 14.0677 5.54938 14.2116 5.54938 14.3893C5.54938 14.567 5.6934 14.711 5.87101 14.711H7.38715C7.45406 15.7557 7.8653 16.7488 8.55666 17.5349L7.48434 18.6078C7.42231 18.6678 7.38684 18.7501 7.38612 18.8364C7.38541 18.9227 7.41929 19.0057 7.48032 19.0667C7.54134 19.1276 7.62434 19.1616 7.71049 19.1609C7.79679 19.1601 7.8792 19.1247 7.93908 19.0627L9.01081 17.991C9.79682 18.6824 10.7906 19.0927 11.8355 19.1572V20.6766C11.8355 20.8543 11.9794 20.9983 12.1571 20.9983C12.3347 20.9983 12.4787 20.8543 12.4787 20.6766V19.1566C13.5225 19.0893 14.5147 18.678 15.3001 17.9871L16.3757 19.062H16.3756C16.4356 19.124 16.5179 19.1595 16.6042 19.1602C16.6905 19.1609 16.7735 19.127 16.8344 19.066C16.8954 19.005 16.9294 18.9221 16.9285 18.8358C16.9278 18.7496 16.8925 18.6671 16.8305 18.6073L15.7561 17.5337C16.4505 16.751 16.863 15.7585 16.9283 14.7142H18.4438C18.6214 14.7142 18.7654 14.5702 18.7654 14.3925C18.7654 14.2149 18.6214 14.0709 18.4438 14.0709L18.4437 14.0709ZM8.01495 14.3925C8.01452 14.233 8.02357 14.0736 8.04195 13.9153C8.06061 13.9153 8.08115 13.9153 8.10053 13.9184C8.28777 13.9401 8.47617 13.9512 8.6647 13.9519C9.59083 13.9507 10.5002 13.7032 11.2991 13.2343C12.098 12.7657 12.7578 12.0928 13.2107 11.2849C13.2664 11.1852 13.2651 11.0635 13.2072 10.9651C13.1494 10.8666 13.0437 10.8061 12.9295 10.8063C12.8974 10.8063 12.8652 10.8063 12.8009 10.8133C12.6072 10.812 12.4139 10.7985 12.2219 10.7728C12.1672 10.7658 12.1133 10.7562 12.0593 10.7471C11.9144 10.7236 11.7712 10.6929 11.6302 10.6551C11.5814 10.6422 11.5319 10.6307 11.4829 10.6159H11.4828C11.3074 10.5623 11.1356 10.4979 10.9681 10.4229C11.6845 10.2093 12.4452 10.1932 13.1699 10.3762C13.8946 10.5595 14.5562 10.9349 15.0851 11.463C15.0966 11.4745 15.1091 11.4849 15.1224 11.4939C15.8796 12.265 16.303 13.3028 16.3015 14.3835V14.3982C16.2975 15.495 15.8589 16.5453 15.0821 17.3194C14.3051 18.0935 13.253 18.528 12.1563 18.528C11.0596 18.528 10.0077 18.0935 9.23069 17.3194C8.45042 16.5456 8.01248 15.4914 8.01495 14.3925L8.01495 14.3925Z" fill="#125873"/>
</svg>
