<svg width="24" height="24" viewBox="0 0 24 24" fill="none" xmlns="http://www.w3.org/2000/svg">
<path d="M6.04235 17.4708H8.19892C8.36163 18.4225 8.95417 19.2392 9.79659 19.6731C10.6391 20.107 11.6323 20.107 12.4748 19.6731C13.3172 19.2392 13.9097 18.4225 14.0725 17.4708H16.229C16.7617 17.4935 17.2656 17.2233 17.5511 16.7622C17.8366 16.301 17.8603 15.7186 17.6132 15.2347C17.3662 14.7508 16.8859 14.4386 16.3533 14.4158V13.6241C17.5931 13.141 18.5395 12.0893 18.9088 10.7839C19.2782 9.4786 19.0276 8.07126 18.2322 6.98353C17.4368 5.89589 16.189 5.25432 14.8626 5.25092C14.2621 5.25194 13.6689 5.38559 13.1234 5.64302C13.103 4.91531 12.7052 4.25422 12.0801 3.90849C11.4549 3.56276 10.6972 3.58516 10.0925 3.96702C9.48764 4.349 9.1277 5.03249 9.14812 5.76009V5.91284C8.19189 6.31437 7.37409 6.99842 6.79889 7.8781C6.22355 8.75763 5.91697 9.79287 5.91819 10.8516V14.4157C5.52276 14.4326 5.15019 14.6097 4.88234 14.908C4.61436 15.2065 4.47306 15.6016 4.48958 16.0068C4.50611 16.412 4.67892 16.7937 4.97008 17.0682C5.26136 17.3427 5.64702 17.4875 6.04245 17.4706L6.04235 17.4708ZM11.1358 18.9982C10.6955 18.9979 10.2676 18.8478 9.91951 18.5712C9.57144 18.2947 9.32288 17.9076 9.21273 17.4708H13.0614C12.9511 17.9081 12.7022 18.2955 12.3536 18.5721C12.0051 18.8486 11.5766 18.9985 11.1358 18.9982ZM18.0926 9.57883C18.0926 10.4566 17.7523 11.2984 17.1466 11.919C16.5409 12.5397 15.7193 12.8884 14.8627 12.8884C14.0061 12.8884 13.1845 12.5397 12.5788 11.919C11.973 11.2984 11.6327 10.4566 11.6327 9.57883C11.6327 8.70111 11.973 7.85928 12.5788 7.23863C13.1845 6.61799 14.0061 6.26932 14.8627 6.26932C15.7193 6.26932 16.5409 6.61799 17.1466 7.23863C17.7523 7.85928 18.0926 8.70111 18.0926 9.57883ZM11.1358 4.74185C11.3725 4.74264 11.6013 4.83004 11.7807 4.98824C11.9602 5.14645 12.0786 5.36511 12.1148 5.6049C11.4678 5.48011 10.8039 5.48011 10.1569 5.6049C10.193 5.3651 10.3115 5.14643 10.491 4.98824C10.6705 4.83004 10.8992 4.74264 11.1359 4.74185H11.1358ZM5.68713 15.5843C5.78107 15.4873 5.90907 15.4332 6.0424 15.434H6.41509C6.54686 15.434 6.67331 15.3804 6.76648 15.2849C6.85965 15.1894 6.912 15.0599 6.912 14.9249V10.8516C6.91211 9.94263 7.19163 9.05681 7.71072 8.31979C8.22982 7.58276 8.9622 7.03177 9.80408 6.74527C10.4525 6.52229 11.1445 6.46637 11.819 6.5823C11.0507 7.40274 10.6284 8.50004 10.6433 9.63694C10.6583 10.7738 11.1093 11.859 11.8988 12.6581C12.6883 13.4571 13.753 13.9056 14.8626 13.9067C15.0288 13.906 15.1947 13.8949 15.3596 13.8736V14.925C15.3596 15.06 15.4119 15.1896 15.5051 15.2851C15.5983 15.3805 15.7247 15.4342 15.8565 15.4342H16.2292C16.3609 15.4342 16.4874 15.4878 16.5805 15.5833C16.6737 15.6788 16.7261 15.8083 16.7261 15.9433C16.7261 16.0784 16.6737 16.2079 16.5805 16.3034C16.4874 16.3988 16.3609 16.4525 16.2292 16.4525H6.04246C5.91069 16.4525 5.78424 16.3988 5.69107 16.3034C5.5979 16.2079 5.54555 16.0784 5.54555 15.9433C5.54477 15.8092 5.59568 15.6802 5.68719 15.5844L5.68713 15.5843Z" fill="#125873"/>
<path d="M14.6852 10.0538L16.6107 10.8175L16.9685 9.86536L15.361 9.22892V6.77734H14.3672V9.5777C14.367 9.68067 14.3972 9.78137 14.454 9.86638C14.5108 9.95139 14.5915 10.0167 14.6852 10.0538L14.6852 10.0538Z" fill="#125873"/>
</svg>
