<svg width="24" height="24" viewBox="0 0 24 24" fill="none" xmlns="http://www.w3.org/2000/svg">
<path d="M12.5577 6.04637V4.55813C12.5577 4.24929 12.3084 4 11.9995 4C11.6907 4 11.4414 4.24929 11.4414 4.55813V6.0465C11.4414 6.35534 11.6907 6.60463 11.9995 6.60463C12.3084 6.6045 12.5577 6.35521 12.5577 6.04637Z" fill="#125873"/>
<path d="M11.9995 17.3945C11.6907 17.3945 11.4414 17.6438 11.4414 17.9527V19.441C11.4414 19.7499 11.6907 19.9992 11.9995 19.9992C12.3084 19.9992 12.5577 19.7499 12.5577 19.441V17.9527C12.5577 17.6438 12.3084 17.3945 11.9995 17.3945Z" fill="#125873"/>
<path d="M7.79044 8.34983C7.93184 8.34983 8.07698 8.29402 8.18486 8.18613C8.40438 7.96662 8.40438 7.61318 8.18486 7.3973L7.13176 6.34432C6.91225 6.12481 6.55881 6.12481 6.34292 6.34432C6.12715 6.56383 6.12341 6.91728 6.34292 7.13316L7.3959 8.18613C7.50391 8.29402 7.64531 8.34983 7.79044 8.34983Z" fill="#125873"/>
<path d="M16.6044 15.8131C16.3849 15.5936 16.0315 15.5936 15.8156 15.8131C15.5998 16.0326 15.5961 16.386 15.8156 16.6019L16.8686 17.6549C16.9764 17.7628 17.1216 17.8186 17.263 17.8186C17.4044 17.8186 17.5495 17.7628 17.6574 17.6549C17.8769 17.4354 17.8769 17.0819 17.6574 16.866L16.6044 15.8131Z" fill="#125873"/>
<path d="M6.6045 11.9995C6.6045 11.6907 6.35521 11.4414 6.04637 11.4414H4.55813C4.24929 11.4414 4 11.6907 4 11.9995C4 12.3084 4.24929 12.5577 4.55813 12.5577H6.0465C6.35521 12.5577 6.6045 12.3084 6.6045 11.9995Z" fill="#125873"/>
<path d="M19.441 11.4414H17.9527C17.6438 11.4414 17.3945 11.6907 17.3945 11.9995C17.3945 12.3084 17.6438 12.5577 17.9527 12.5577H19.441C19.7499 12.5577 19.9992 12.3084 19.9992 11.9995C19.9992 11.6907 19.7499 11.4414 19.441 11.4414Z" fill="#125873"/>
<path d="M7.3973 15.8142L6.34432 16.8673C6.12481 17.0868 6.12481 17.4402 6.34432 17.6561C6.45221 17.764 6.59735 17.8198 6.73874 17.8198C6.88013 17.8198 7.02528 17.764 7.13316 17.6561L8.18613 16.6031C8.40565 16.3836 8.40565 16.0302 8.18613 15.8143C7.96662 15.5984 7.61305 15.5984 7.3973 15.8142V15.8142Z" fill="#125873"/>
<path d="M16.6019 8.18864L17.6549 7.13567C17.8744 6.91616 17.8744 6.56271 17.6549 6.34683C17.4354 6.13105 17.0819 6.12732 16.866 6.34683L15.8131 7.3998C15.5936 7.61932 15.5936 7.97276 15.8131 8.18864C15.921 8.29653 16.0661 8.35234 16.2075 8.35234C16.3489 8.35234 16.494 8.29653 16.6019 8.18864Z" fill="#125873"/>
<path d="M11.9986 7.34766C9.43495 7.34766 7.34766 9.43501 7.34766 11.9986C7.34766 14.5622 9.43501 16.6495 11.9986 16.6495C14.5622 16.6495 16.6495 14.5622 16.6495 11.9986C16.6495 9.43501 14.5622 7.34766 11.9986 7.34766ZM11.9986 15.5333C10.0489 15.5333 8.46391 13.9482 8.46391 11.9986C8.46391 10.0489 10.0489 8.46391 11.9986 8.46391C13.9482 8.46391 15.5333 10.0489 15.5333 11.9986C15.5333 13.9482 13.9482 15.5333 11.9986 15.5333Z" fill="#125873"/>
</svg>
