<svg width="24" height="24" viewBox="0 0 24 24" fill="none" xmlns="http://www.w3.org/2000/svg">
<path d="M15.5105 14.2802C15.2346 14.2802 14.9797 14.4274 14.8417 14.6664C14.7038 14.9053 14.7038 15.1997 14.8417 15.4385C14.9797 15.6774 15.2346 15.8246 15.5105 15.8246C16.7568 15.8246 17.9085 15.1598 18.5315 14.0805C19.1547 13.001 19.1547 11.6714 18.5315 10.5918C17.9085 9.51247 16.7568 8.84766 15.5105 8.84766C15.2346 8.84766 14.9797 8.99484 14.8417 9.23372C14.7038 9.47261 14.7038 9.76698 14.8417 10.0058C14.9797 10.2449 15.2346 10.392 15.5105 10.392C16.205 10.392 16.8468 10.7625 17.1941 11.364C17.5414 11.9654 17.5414 12.7066 17.1941 13.308C16.8468 13.9095 16.205 14.2799 15.5105 14.2799V14.2802Z" fill="#125873"/>
<path d="M8.28193 16.0227L13.274 19.5324C13.4291 19.6413 13.619 19.6895 13.8072 19.6676C13.9956 19.6456 14.1693 19.5553 14.2952 19.4135C14.4211 19.2718 14.4906 19.0887 14.4902 18.8991V5.77177C14.4901 5.5823 14.4205 5.39957 14.2944 5.2583C14.1684 5.1169 13.9948 5.02682 13.8067 5.00513C13.6186 4.98332 13.429 5.03153 13.274 5.14047L8.28195 8.64809H5.77228C5.56746 8.64809 5.37098 8.72943 5.22623 8.87432C5.08134 9.01908 5 9.21555 5 9.42038V15.2504C5 15.4553 5.08134 15.6517 5.22623 15.7965C5.37099 15.9414 5.56746 16.0227 5.77228 16.0227L8.28193 16.0227ZM6.54456 10.1926H8.5522C8.76523 10.192 8.96843 10.1032 9.11387 9.94741L12.9459 7.25638V17.4145L9.11766 14.7235C8.97223 14.5677 8.7689 14.479 8.55586 14.4783H6.55008L6.54456 10.1926Z" fill="#125873"/>
</svg>
