<svg width="31" height="31" viewBox="0 0 31 31" fill="none" xmlns="http://www.w3.org/2000/svg">
<path d="M19.9788 18.4602C19.6263 18.4602 19.3007 18.6482 19.1243 18.9536C18.9481 19.2588 18.9481 19.6349 19.1243 19.9401C19.3007 20.2453 19.6263 20.4333 19.9788 20.4333C21.5711 20.4333 23.0424 19.584 23.8385 18.205C24.6347 16.8259 24.6347 15.1271 23.8385 13.7478C23.0424 12.3689 21.5711 11.5195 19.9788 11.5195C19.6263 11.5195 19.3007 11.7076 19.1243 12.0128C18.9481 12.318 18.9481 12.6941 19.1243 12.9992C19.3007 13.3046 19.6263 13.4927 19.9788 13.4927C20.8661 13.4927 21.686 13.966 22.1297 14.7345C22.5734 15.5028 22.5734 16.4497 22.1297 17.2181C21.686 17.9866 20.8661 18.4599 19.9788 18.4599V18.4602Z" fill="#125873"/>
<path d="M10.7438 20.6882L17.1217 25.1722C17.3199 25.3114 17.5625 25.373 17.803 25.345C18.0437 25.3169 18.2656 25.2015 18.4265 25.0203C18.5873 24.8393 18.6761 24.6053 18.6756 24.3631V7.59149C18.6754 7.34943 18.5865 7.11596 18.4254 6.93547C18.2644 6.75482 18.0426 6.63973 17.8023 6.61203C17.562 6.58416 17.3197 6.64575 17.1217 6.78493L10.7438 11.2663H7.53746C7.27578 11.2663 7.02475 11.3702 6.83981 11.5554C6.6547 11.7403 6.55078 11.9913 6.55078 12.253V19.7016C6.55078 19.9632 6.6547 20.2143 6.83981 20.3992C7.02476 20.5843 7.27577 20.6882 7.53746 20.6882L10.7438 20.6882ZM8.52413 13.2396H11.0891C11.3613 13.2388 11.6209 13.1254 11.8067 12.9263L16.7025 9.48825V22.4664L11.8116 19.0283C11.6257 18.8293 11.366 18.7159 11.0938 18.715H8.53118L8.52413 13.2396Z" fill="#125873"/>
</svg>
