<svg width="24" height="25" viewBox="0 0 24 25" fill="none" xmlns="http://www.w3.org/2000/svg">
<path d="M23.6893 15.5532L21.2637 14.1589C21.4601 13.0609 21.4601 11.937 21.2637 10.839L23.6893 9.44476C23.9419 9.29958 24.0591 8.99889 23.9709 8.72205C23.4175 6.99431 22.4952 5.40606 21.2673 4.06695C21.0705 3.8523 20.7504 3.80313 20.4978 3.94866L18.0742 5.34237C17.2183 4.62322 16.2414 4.06071 15.1885 3.68107V0.893795C15.1886 0.602901 14.9851 0.351216 14.6997 0.289379C12.9208 -0.0964596 11.0793 -0.0964596 9.3003 0.289379C9.01514 0.351549 8.81174 0.603252 8.81211 0.893977V3.68107C7.75897 4.06067 6.78186 4.62322 5.92587 5.34237L3.50136 3.94866C3.24876 3.80313 2.92871 3.85229 2.73211 4.06695C1.5049 5.40652 0.583243 6.99458 0.0302951 8.72205C-0.0578999 8.99905 0.0594545 9.29956 0.312228 9.44476L2.73748 10.839C2.54051 11.937 2.54051 13.0609 2.73748 14.1589L0.310808 15.5532C0.058034 15.6984 -0.059141 15.9992 0.0292326 16.2761C0.58273 18.004 1.50493 19.5921 2.73283 20.9316C2.92962 21.1461 3.24965 21.1953 3.50226 21.0499L5.9259 19.656C6.78189 20.3752 7.75919 20.9375 8.81232 21.3171V24.1048C8.81215 24.3953 9.01537 24.6469 9.30033 24.709C11.0791 25.097 12.921 25.097 14.6997 24.709C14.9849 24.647 15.1881 24.3955 15.1879 24.1048V21.3171C16.2411 20.9375 17.2182 20.3752 18.0742 19.6558L20.4987 21.0499C20.7513 21.1953 21.0713 21.1461 21.2679 20.9316C22.4951 19.5921 23.4168 18.004 23.9697 16.2761C24.0583 15.9994 23.9417 15.6987 23.6893 15.5532ZM12.0002 17.8381C10.5778 17.8381 9.21354 17.2754 8.2078 16.2737C7.20188 15.2722 6.63694 13.9136 6.63712 12.4973C6.6373 11.0808 7.20262 9.72244 8.20849 8.72096C9.2146 7.71966 10.579 7.15729 12.0014 7.15766C13.4239 7.15784 14.788 7.72094 15.7934 8.72274C16.7989 9.72476 17.3637 11.0834 17.3631 12.4997C17.3613 13.9154 16.7957 15.2726 15.7903 16.2737C14.7849 17.2746 13.4218 17.8367 12.0002 17.8381Z" fill="#125873"/>
</svg>
